<?xml version="1.0" standalone="no"?>
<!DOCTYPE svg PUBLIC "-//W3C//DTD SVG 20010904//EN"
 "http://www.w3.org/TR/2001/REC-SVG-20010904/DTD/svg10.dtd">
<svg version="1.0" xmlns="http://www.w3.org/2000/svg"
 width="512.000000pt" height="512.000000pt" viewBox="0 0 512.000000 512.000000"
 preserveAspectRatio="xMidYMid meet">
<metadata>
Created by potrace 1.14, written by Peter Selinger 2001-2017
</metadata>
<g transform="translate(0.000000,512.000000) scale(0.100000,-0.100000)"
fill="#000000" stroke="none">
<path d="M2665 4654 c-580 -47 -1175 -335 -1530 -743 -194 -223 -290 -432
-302 -659 -18 -319 95 -500 351 -566 76 -20 236 -32 236 -19 0 6 -11 35 -24
65 -38 86 -50 188 -43 371 7 185 30 313 82 452 92 246 250 441 478 591 82 54
256 138 266 129 3 -4 99 -446 212 -983 l207 -976 -524 -925 c-288 -508 -524
-926 -524 -928 0 -2 76 -3 169 -3 l169 0 403 696 c294 508 405 691 410 677 3
-10 71 -323 150 -695 l143 -678 443 0 c320 0 443 3 443 11 0 6 -117 578 -261
1270 l-260 1259 457 792 c252 436 464 803 472 816 l14 22 -198 0 -199 -1 -320
-569 c-176 -313 -322 -569 -325 -570 -3 0 -58 260 -124 578 -65 317 -119 578
-120 579 -4 4 -306 10 -351 7z"/>
</g>
</svg>
